<svg version="1.1" id="Layer_1" xmlns="http://www.w3.org/2000/svg" xmlns:xlink="http://www.w3.org/1999/xlink" x="0px" y="0px"
	 width="100%" viewBox="0 0 1280 768" enable-background="new 0 0 1280 768" xml:space="preserve">
<path fill="#006747" opacity="1.000000" stroke="none" 
	d="
M703.000000,769.000000 
	C468.695190,769.000000 234.890366,769.000000 1.042774,769.000000 
	C1.042774,513.059753 1.042774,257.119476 1.042774,1.089604 
	C427.554871,1.089604 854.109802,1.089604 1280.832275,1.089604 
	C1280.832275,256.999908 1280.832275,512.999939 1280.832275,769.000000 
	C1088.452759,769.000000 895.976379,769.000000 703.000000,769.000000 
M793.773254,248.750061 
	C732.615173,153.122391 619.558105,108.680504 511.043549,137.611160 
	C380.845123,172.322891 300.007385,301.831238 325.822235,434.350281 
	C348.328827,549.886658 448.304749,636.190552 565.663208,640.735046 
	C633.157471,643.348633 692.956848,622.638977 744.308716,578.608521 
	C839.835938,496.700928 861.045654,355.872559 793.773254,248.750061 
z"/>
<path fill="#DA291C" opacity="1.000000" stroke="none" 
	d="
M793.950012,249.066650 
	C861.045654,355.872559 839.835938,496.700928 744.308716,578.608521 
	C692.956848,622.638977 633.157471,643.348633 565.663208,640.735046 
	C448.304749,636.190552 348.328827,549.886658 325.822235,434.350281 
	C300.007385,301.831238 380.845123,172.322891 511.043549,137.611160 
	C619.558105,108.680504 732.615173,153.122391 793.950012,249.066650 
z"/>
</svg>